<?xml version="1.0" encoding="UTF-8"?>
<svg width="44px" height="44px" viewBox="0 0 44 44" version="1.1" xmlns="http://www.w3.org/2000/svg" xmlns:xlink="http://www.w3.org/1999/xlink">
    <!-- Generator: Sketch 63 (92445) - https://sketch.com -->
    <title>anzhuo</title>
    <desc>Created with Sketch.</desc>
    <g id="页面-1" stroke="none" stroke-width="1" fill="none" fill-rule="evenodd">
        <g id="H5分享下载APP" transform="translate(-422.000000, -1031.000000)" fill="#ED513B" fill-rule="nonzero">
            <g id="编组-4" transform="translate(392.000000, 1009.000000)">
                <g id="anzhuo" transform="translate(30.000000, 22.000000)">
                    <g id="iconfontandroid1" transform="translate(2.750000, 0.000000)">
                        <path d="M24.5519015,3.87138065 L26.8474992,0.532700215 C26.9455613,0.390276129 26.909618,0.193293763 26.7674362,0.0952430108 L26.7102012,0.055384086 C26.5677999,-0.0429969892 26.37195,-0.00671655914 26.2739427,0.135927742 L23.9123849,3.57029161 C22.3702248,2.89946151 20.6493359,2.52498581 18.8337323,2.52498581 C17.1110325,2.52498581 15.4726761,2.86252043 13.9920312,3.47014882 L11.7357241,0.188834409 C11.637662,0.0459148387 11.4413731,0.0101298925 11.2994656,0.108455914 L11.2422307,0.147819355 C11.1000489,0.24620043 11.0639409,0.443292903 11.1617287,0.585772043 L13.34357,3.75863054 C9.91298673,5.4030314 7.44755,8.53850839 6.94555091,12.240874 L30.721804,12.240874 C30.2317128,8.62130925 27.8636248,5.54325333 24.5519015,3.87138065 Z M13.8276248,8.65395613 C13.1733468,8.65395613 12.6428126,8.1217514 12.6428126,7.46529032 C12.6428126,6.80882925 13.1733468,6.27678968 13.8276248,6.27678968 C14.4816833,6.27678968 15.0122176,6.80877419 15.0122176,7.46529032 C15.0122176,8.1217514 14.4817382,8.65395613 13.8276248,8.65395613 Z M24.0546217,8.65395613 C23.4002888,8.65395613 22.8698094,8.1217514 22.8698094,7.46529032 C22.8698094,6.80882925 23.4003437,6.27678968 24.0546217,6.27678968 C24.7089545,6.27678968 25.2392144,6.80877419 25.2392144,7.46529032 C25.2392144,8.1217514 24.7089545,8.65395613 24.0546217,8.65395613 Z M2.40324932,13.9700576 L2.92835091,13.9700576 C4.22845612,13.9700576 5.29188424,15.3358314 5.29188424,17.0052267 L5.29188424,26.7431914 C5.29188424,28.4134125 4.22845612,29.7787458 2.92835091,29.7787458 L2.40324932,29.7787458 C1.1029246,29.7787458 0.03944161,28.4134125 0.03944161,26.7431914 L0.03944161,17.0051716 C0.03944161,15.3358314 1.1029246,13.9700576 2.40324932,13.9700576 L2.40324932,13.9700576 Z M34.9034103,14.0278641 L35.4287863,14.0278641 C36.728672,14.0278641 37.7921001,15.3934176 37.7921001,17.0630331 L37.7921001,26.8012181 C37.7921001,28.4707785 36.728672,29.8367725 35.4287863,29.8367725 L34.9034103,29.8367725 C33.6033051,29.8367725 32.5396026,28.4707785 32.5396026,26.8012181 L32.5396026,17.0630331 C32.5396026,15.3934176 33.6033051,14.0278641 34.9034103,14.0278641 L34.9034103,14.0278641 Z M16.7976947,35.4614503 L16.7976947,40.9504206 C16.7976947,42.6191002 15.7344861,43.9850391 14.4341613,43.9850391 L13.9087854,43.9850391 C12.608735,43.9850391 11.5454715,42.6191002 11.5454715,40.9504206 L11.5454715,35.4614503 L9.37147744,35.4614503 C8.04179444,35.4614503 6.95405658,34.3702297 6.95405658,33.0357265 L6.95405658,13.8206417 L30.9032765,13.8206417 L30.9032765,33.0357265 C30.9032765,34.3702297 29.8155935,35.4614503 28.4858557,35.4614503 L26.4919074,35.4614503 L26.4919074,41.014283 C26.4919074,42.6836232 25.4282598,43.9946185 24.128374,43.9946185 L23.6030529,43.9946185 C22.3029477,43.9946185 21.2396842,42.6836783 21.2396842,41.014283 L21.2396842,35.4614503 L16.7976947,35.4614503 L16.7976947,35.4614503 Z" id="形状"></path>
                    </g>
                </g>
            </g>
        </g>
    </g>
</svg>