<?xml version="1.0" encoding="UTF-8"?>
<svg width="44px" height="44px" viewBox="0 0 44 44" version="1.1" xmlns="http://www.w3.org/2000/svg" xmlns:xlink="http://www.w3.org/1999/xlink">
    <!-- Generator: Sketch 63 (92445) - https://sketch.com -->
    <title>pingguo</title>
    <desc>Created with Sketch.</desc>
    <g id="页面-1" stroke="none" stroke-width="1" fill="none" fill-rule="evenodd">
        <g id="H5分享下载APP" transform="translate(-102.000000, -1031.000000)" fill="#ED513B" fill-rule="nonzero">
            <g id="编组-2" transform="translate(64.000000, 1009.000000)">
                <g id="pingguo" transform="translate(38.000000, 22.000000)">
                    <g transform="translate(3.437500, 0.000000)" id="形状">
                        <path d="M31.5534441,23.3812586 C31.6177167,30.0348794 37.7012952,32.2490577 37.7722151,32.2799092 C37.7167914,32.4321044 36.7973784,35.43579 34.5620395,38.5387334 C32.63015,41.2204543 30.6296283,43.8867495 27.4726319,43.9418784 C24.3666133,43.9970072 23.3718775,42.1952857 19.8227277,42.1952857 C16.2758657,42.1952857 15.1658796,43.8867925 12.2304487,43.9970502 C9.18645808,44.1073509 6.86465982,41.1036224 4.91727416,38.4329443 C0.933928391,32.9680533 -2.10565946,22.9931651 1.97964188,16.2602241 C4.00675317,12.9146793 7.63338402,10.7997158 11.5657952,10.7423955 C14.5588512,10.6916495 17.3857223,12.6588006 19.2112966,12.6588006 C21.0434319,12.6588006 24.4751299,10.2946614 28.0841063,10.6409464 C29.5928068,10.7004581 33.8354011,11.2187468 36.5581152,14.9987483 C36.3409956,15.1332404 31.495862,17.8061528 31.5534441,23.3813016 L31.5534441,23.3812586 Z M18.8457328,10.1402748 C18.4956652,7.61070608 19.8072315,4.98187963 21.3048387,3.33011899 C22.9775227,1.47099124 25.8000342,0.0882148008 28.1306812,0 C28.4297278,2.57584602 27.3353243,5.16277798 25.7202654,7.0262885 C24.1008037,8.88322484 21.4466786,10.3321301 18.8457759,10.1402318 L18.8457328,10.1402748 Z"></path>
                    </g>
                </g>
            </g>
        </g>
    </g>
</svg>