<?xml version="1.0" encoding="UTF-8"?>
<svg width="96px" height="96px" viewBox="0 0 96 96" version="1.1" xmlns="http://www.w3.org/2000/svg" xmlns:xlink="http://www.w3.org/1999/xlink">
    <!-- Generator: Sketch 52.6 (67491) - http://www.bohemiancoding.com/sketch -->
    <title>morentouxiang-4</title>
    <desc>Created with Sketch.</desc>
    <g id="页面-1" stroke="none" stroke-width="1" fill="none" fill-rule="evenodd">
        <g id="直播(加载)" transform="translate(-24.000000, -60.000000)">
            <g id="编组-2" transform="translate(24.000000, 60.000000)">
                <g id="morentouxiang-4">
                    <circle id="椭圆形" fill="#FFFFFF" cx="48" cy="48" r="48"></circle>
                    <path d="M72.8829548,45.8973451 C72.6506876,33.223646 61.5793792,23.1134395 48.0215953,23.0505723 C34.4637171,23.1134395 23.3919371,33.224118 23.1602358,45.8973451 C23.015387,53.8007788 27.8639528,61.6273746 34.0953713,66.5585841 L48.0215953,66.6682714 L61.9478193,66.5585841 C68.1792377,61.6273746 73.0278035,53.8007788 72.8829548,45.8973451 Z M59.4771866,62.6698761 C59.7871591,62.4456873 65.5845029,57.2376165 63.8003929,44.9785959 C62.909611,38.8643304 59.0333988,35.187823 56.323332,32.5093569 C54.3533517,30.5620767 52.9995442,29.6346431 53.8556228,29.8903599 C57.2981375,30.9178525 65.3618546,32.856826 67.5563694,42.164295 C70.8357407,56.0805192 60.0483772,62.336472 59.4771866,62.6698761 Z M55.6377525,76.0584307 C55.6378525,75.9000341 55.5750681,75.7480893 55.463219,75.6360417 C55.35137,75.5239942 55.1996241,75.461028 55.0413831,75.4610029 L40.9954892,75.4711976 C40.8373079,75.4710974 40.6855751,75.5339456 40.5737152,75.6458979 C40.4618552,75.7578501 40.3990447,75.9097221 40.3991198,76.068059 L40.4054381,85.5843304 C40.4056462,85.9138815 40.6724858,86.1809835 41.0017132,86.1811917 L55.0481729,86.1715634 C55.3775018,86.1715113 55.6444479,85.9042604 55.6444479,85.5746077 L55.6377525,76.0584307 Z M48.0215953,95.9988644 L47.8708998,96.0003659 C47.9211631,96.0003659 47.9708605,96.0029684 48.0215953,96.0029684 C48.0717642,96.0029684 48.121556,96.0009665 48.1721965,96.0003659 L48.0215953,95.9988644 Z" id="形状" fill="#DDDDDD" fill-rule="nonzero"></path>
                    <path d="M48.0215953,0.0438938053 C21.5499253,0.0438938053 0.0905304519,21.524295 0.0905304519,48.0218997 C0.0905304519,67.3057227 11.4587033,83.9304307 27.8508448,91.5541711 L27.8711198,82.8903835 C27.8711198,82.8903835 27.3130373,74.7959882 32.8172888,70.2162124 L31.5045029,69.5729086 C24.1856817,64.1652861 19.2841179,55.2965664 18.5506326,46.0225133 C18.4723394,45.0370109 18.4420638,44.0482752 18.4599136,43.059823 C18.7476306,27.3477286 31.9332024,14.8179823 48.0206523,14.8393156 C64.1089509,14.8179823 77.2945226,27.3476342 77.5818625,43.059823 C77.6001857,44.0482798 77.5698779,45.0370403 77.4910491,46.0225133 C76.7576582,55.2966608 71.8555285,64.1657581 64.5376503,69.5729086 L63.2249587,70.2162124 C68.7291159,74.7959882 68.1710334,82.8903835 68.1710334,82.8903835 L68.1908369,91.4984779 C68.0531552,91.5845664 67.9132102,91.6657463 67.7745855,91.7493805 C84.3916385,84.2155988 95.951057,67.4711032 95.951057,48.0224661 C95.952943,21.523823 74.4926994,0.0438938053 48.0215953,0.0438938053 Z" id="路径" fill="#DDDDDD"></path>
                </g>
            </g>
        </g>
    </g>
</svg>